PathFileType	3	(X/Y/Z)	F:\ViconData\AntennenMessung\Messung1\Session1\ID13.trc
DataRate	CameraRate	NumFrames	NumMarkers	Units	OrigDataRate	OrigDataStartFrame	OrigNumFrames
120.0	120.0	4	70	mm	120.0	343	912	
Frame#	Time	Ashort			Along			Atop			A4			Bshort			Blong			Btop			B4			Cshort			Clong			Ctop			C4			Dshort			Dlong			Dtop			D4			Eshort			Elong			Etop			E4			Fshort			Flong			Ftop			F4			Gshort			Glong			Gtop			G4			Hshort			Hlong			Htop			H4			I1			I2			I3			I4			I5			WandAshort			WandAlong			WandAtop			WandA4			WandA15			WandBshort			WandB4			WandB5			WandBtop			WandBlong			WandCshort			WandClong			WandCtop			WandC4			WandC5			Acenter			Aantenna			Bcenter			Bantenna			Ccenter			Cantenna			Dcenter			Dantenna			Ecenter			Eantenna			Fcenter			Fantenna			Gcenter			Gantenna			Hcenter			Hantenna			Icenter			Iantenna			
		X1	Y1	Z1	X2	Y2	Z2	X3	Y3	Z3	X4	Y4	Z4	X5	Y5	Z5	X6	Y6	Z6	X7	Y7	Z7	X8	Y8	Z8	X9	Y9	Z9	X10	Y10	Z10	X11	Y11	Z11	X12	Y12	Z12	X13	Y13	Z13	X14	Y14	Z14	X15	Y15	Z15	X16	Y16	Z16	X17	Y17	Z17	X18	Y18	Z18	X19	Y19	Z19	X20	Y20	Z20	X21	Y21	Z21	X22	Y22	Z22	X23	Y23	Z23	X24	Y24	Z24	X25	Y25	Z25	X26	Y26	Z26	X27	Y27	Z27	X28	Y28	Z28	X29	Y29	Z29	X30	Y30	Z30	X31	Y31	Z31	X32	Y32	Z32	X33	Y33	Z33	X34	Y34	Z34	X35	Y35	Z35	X36	Y36	Z36	X37	Y37	Z37	X38	Y38	Z38	X39	Y39	Z39	X40	Y40	Z40	X41	Y41	Z41	X42	Y42	Z42	X43	Y43	Z43	X44	Y44	Z44	X45	Y45	Z45	X46	Y46	Z46	X47	Y47	Z47	X48	Y48	Z48	X49	Y49	Z49	X50	Y50	Z50	X51	Y51	Z51	X52	Y52	Z52	X53	Y53	Z53	X54	Y54	Z54	X55	Y55	Z55	X56	Y56	Z56	X57	Y57	Z57	X58	Y58	Z58	X59	Y59	Z59	X60	Y60	Z60	X61	Y61	Z61	X62	Y62	Z62	X63	Y63	Z63	X64	Y64	Z64	X65	Y65	Z65	X66	Y66	Z66	X67	Y67	Z67	X68	Y68	Z68	X69	Y69	Z69	X70	Y70	Z70	
343	2.85	-1038.2738	214.60944	-1644.1151	-1109.3789	203.98956	-1599.365	-1063.7031	172.97876	-1625.8832	-1054.1533	262.29651	-1634.9058	-1352.7231	235.46277	1003.7094	-1281.4186	227.45042	1052.2052	-1322.8033	194.02475	1020.8545	-1284.6741	287.83774	1052.8053	813.93268	187.66005	1209.3851	892.41406	178.50421	1179.1008	844.3927	145.51225	1198.1929	861.16119	292.37549	1168.2664	1115.8467	209.96817	-1401.8013	1056.3049	194.07593	-1460.236	1095.2224	162.47803	-1423.86	1069.8093	238.84764	-1425.8474	-1204.5352	1686.0122	-1563.2579	-1129.1051	1688.3414	-1606.1187	-1173.1715	1724.4652	-1581.9072	-1133.7513	1581.026	-1603.7328	-1239.5439	1699.0012	1119.4001	-1308.0774	1699.7767	1067.627	-1270.4392	1736.2688	1096.8596	-1244.9767	1593.848	1106.4369	988.86237	1664.2543	1162.2175	957.25342	1700.4905	1183.795	922.15118	1662.226	1214.8711	939.82654	1659.4202	1159.842	999.11755	1668.4636	-1579.4285	1058.9158	1670.1218	-1518.7141	1025.0565	1708.0435	-1551.1671	1059.326	1672.1575	-1585.4669	-187.6747	1177.3149	-236.61205	-194.14932	1178.999	-152.52144	-191.51193	1215.0569	-199.6712	-222.4207	1175.6813	-202.06792	-142.48949	1180.4833	-196.05331																																														-1068.6754	210.06882	-1624.9818	-1073.8557	248.71181	-1624.0425	-1321.3802	231.94084	1025.0264	-1319.9263	270.67993	1029.2888	848.07941	183.67641	1196.2086	851.82434	222.44382	1194.1931	1088.837	202.75905	-1428.3086	1082.7668	241.05095	-1432.5376	-1171.9418	1687.0186	-1581.778	-1170.6617	1648.0398	-1581.6434	-1270.3208	1699.3494	1096.1498	-1270.1959	1660.3569	1095.4004	952.77533	1705.624	1186.8519	972.66351	1733.8081	1168.6555	1026.5487	1669.2241	-1551.5768	1028.047	1630.2551	-1551.988	-190.58153	1178.071	-198.85886	-189.60101	1139.0928	-198.00275
344	2.8583333	-1038.2656	214.60324	-1644.1345	-1109.386	204.01579	-1599.3682	-1063.7257	172.94893	-1625.8715	-1054.1653	262.24692	-1634.9211	-1352.6958	235.47501	1003.7011	-1281.4153	227.44891	1052.1128	-1322.7562	194.10068	1020.8091	-1284.5583	287.83737	1052.7977	813.96393	187.58365	1209.4662	892.80731	179.07951	1178.6101	844.47235	145.54178	1198.2025	861.17291	292.44028	1168.5359	1115.8323	209.95772	-1401.8011	1056.3994	194.10136	-1460.2777	1095.1803	162.39908	-1423.8555	1069.7994	238.7795	-1425.8804	-1204.535	1685.9993	-1563.2548	-1129.1321	1688.2972	-1606.0592	-1173.1705	1724.4644	-1581.9014	-1134.0111	1581.0582	-1603.8966	-1239.5654	1699.0331	1119.4077	-1309.1858	1698.527	1071.7936	-1270.4702	1736.3104	1096.8762	-1244.9056	1594.0159	1106.4354	988.82617	1664.2311	1162.2415	957.22864	1700.5944	1183.7487	922.73517	1662.0419	1214.9816	939.81958	1659.3864	1159.8634	999.10809	1668.463	-1579.4413	1058.9052	1670.1145	-1518.7161	1025.0455	1708.0431	-1551.1823	1059.3058	1672.1281	-1585.4573	-187.68677	1177.2974	-236.61113	-194.1967	1179.1112	-152.43318	-191.49748	1215.0399	-199.6752	-222.39632	1175.6449	-202.07455	-142.51074	1180.4703	-196.06071																																														-1068.6926	210.07364	-1624.9822	-1073.863	248.71832	-1624.0566	-1321.3396	231.94432	1024.9973	-1319.8895	270.68085	1029.2844	847.83356	183.93042	1196.2109	851.23077	222.73001	1194.1981	1088.842	202.75687	-1428.3569	1082.8278	241.05286	-1432.6285	-1171.9454	1686.9924	-1581.7549	-1170.671	1648.0134	-1581.6027	-1270.9346	1698.8049	1097.9539	-1271.4172	1659.824	1099.0739	953.14453	1705.2943	1186.5284	972.89667	1733.3887	1168.047	1026.5326	1669.2203	-1551.5909	1028.0255	1630.2511	-1552.0012	-190.61006	1178.1118	-198.81079	-189.67339	1139.1337	-197.89841
345	2.8666667	-1038.2759	214.68416	-1644.1321	-1109.3723	204.02487	-1599.3634	-1063.6858	172.93744	-1625.8514	-1054.146	262.27979	-1634.9454	-1352.7921	235.47002	1003.6197	-1281.411	227.42239	1052.1361	-1322.761	194.13278	1020.7991	-1284.6144	287.85022	1052.8024	813.948	187.61029	1209.5776	892.44348	178.53442	1179.0814	844.39368	145.54999	1198.2063	861.14307	292.36612	1168.3994	1115.8169	209.95016	-1401.8114	1056.2286	194.05745	-1460.2014	1095.0432	161.90005	-1423.4806	1069.765	238.80504	-1425.9164	-1204.6025	1686.0624	-1563.1125	-1129.1085	1688.316	-1606.0546	-1173.1694	1724.4688	-1581.9014	-1134.0171	1581.0527	-1603.8831	-1239.5503	1699.0059	1119.4053	-1308.1503	1699.6866	1067.8287	-1270.4272	1736.2489	1096.8577	-1244.9614	1593.9031	1106.3885	988.85175	1664.2605	1162.2405	957.20135	1700.6011	1183.7515	922.68549	1662.0216	1214.9332	939.82544	1659.4215	1159.8783	999.10583	1668.4691	-1579.4602	1058.8956	1670.1321	-1518.7202	1025.0437	1708.0376	-1551.1873	1059.2842	1672.1757	-1585.5604	-187.68416	1177.3103	-236.60924	-194.14438	1179.0087	-152.51254	-191.48666	1215.0294	-199.68022	-222.38362	1175.6472	-202.08723	-142.52168	1180.4688	-196.07619																																														-1068.7059	210.12183	-1624.9705	-1073.9226	248.76053	-1624.0553	-1321.3491	231.92506	1024.9908	-1319.9022	270.66068	1029.2872	848.06836	183.66518	1196.3215	851.80652	222.43823	1194.4043	1088.8282	202.75203	-1428.2573	1083.0012	241.05333	-1432.7358	-1171.9343	1687.0375	-1581.6945	-1170.6483	1648.0592	-1581.4794	-1270.3409	1699.3113	1096.2554	-1270.25	1660.3165	1095.6196	953.09674	1705.314	1186.5411	972.84985	1733.4336	1168.0995	1026.5361	1669.2319	-1551.5939	1028.0348	1630.2628	-1552.0022	-190.58366	1178.0726	-198.8645	-189.63129	1139.0936	-198.00414
346	2.875	-1038.2623	214.6411	-1644.0947	-1109.4031	204.17937	-1599.333	-1063.6252	172.95912	-1625.8877	-1054.1602	262.29922	-1634.8767	-1352.7472	235.43188	1003.6641	-1281.4695	227.37079	1052.2903	-1322.7797	194.11118	1020.8284	-1284.4799	287.87463	1052.7401	813.87335	187.69519	1209.4448	892.49042	178.47163	1179.0848	844.39923	145.51472	1198.2671	861.12842	292.45908	1168.394	1115.7706	209.67699	-1401.6373	1056.2305	194.07933	-1460.1605	1095.1763	162.33652	-1423.7235	1069.7415	238.80228	-1425.8699	-1204.61	1686.0731	-1563.1085	-1129.0978	1688.3156	-1606.0795	-1173.1729	1724.4742	-1581.9037	-1134.0206	1581.0596	-1603.8802	-1239.5562	1699.011	1119.3995	-1308.2396	1699.735	1067.8898	-1270.4656	1736.3052	1096.8732	-1244.9827	1593.8854	1106.3514	988.81049	1664.2174	1162.2345	957.22577	1700.5981	1183.799	922.52911	1662.1172	1214.9161	939.82251	1659.4205	1159.9189	999.11346	1668.447	-1579.4346	1058.9076	1670.144	-1518.7123	1025.0387	1708.032	-1551.1909	1059.2822	1672.1716	-1585.5607	-187.68604	1177.3087	-236.6033	-194.12495	1178.9972	-152.50537	-191.52333	1215.0548	-199.67458	-222.45927	1175.7268	-202.09085	-142.53923	1180.4705	-196.08211																																														-1068.5604	210.18553	-1625.031	-1073.6849	248.83717	-1624.1416	-1321.3911	231.88568	1025.0554	-1319.9675	270.61795	1029.3895	848.09058	183.68073	1196.231	851.83984	222.44496	1194.1628	1088.8851	202.63387	-1428.0632	1082.9036	240.95084	-1432.1898	-1171.9438	1687.0431	-1581.6975	-1170.6642	1648.0646	-1581.4828	-1270.4009	1699.3361	1096.2672	-1270.3326	1660.3414	1095.6281	953.06592	1705.3894	1186.6388	972.90228	1733.4984	1168.2705	1026.5387	1669.2253	-1551.5834	1028.045	1630.2565	-1551.9775	-190.57587	1178.0664	-198.85938	-189.57747	1139.0886	-198.00037
